# xmcd
#
# Track frame offsets:
#	150
#	14165
#	24412
#	39575
#	52015
#	66232
#	76472
#	91662
#	104165
#
# Disc length: 1552 seconds
#
# Revision: 0
# Processed by: cddbd v1.4PL0 Copyright (c) Steve Scherf et al.
# Submitted via: dBpowerAMP V4.0
#
DISCID=76060e09
DTITLE=Bret Graham - He Found Me
DYEAR=1900
DGENRE=
TTITLE0=The Drunk
TTITLE1=Hallelujah Why
TTITLE2=Move That Mountain
TTITLE3=Show Me The Way
TTITLE4=God's Love
TTITLE5=Put On Your Armor
TTITLE6=He Found Me
TTITLE7=Come On Home
TTITLE8=Bright Ray of Sunshine
EXTD=
EXTT0=
EXTT1=
EXTT2=
EXTT3=
EXTT4=
EXTT5=
EXTT6=
EXTT7=
EXTT8=
PLAYORDER=
